#!OML:ASF Y:\EmotionMaleHayes\Project 1\Capture day 1\Session 1\Male1.ASF
:FULLY-SPECIFIED
:DEGREES
218
root -28.827 16.8544 1.12048 191.973 65.7214 192.771
lowerback 10.8651 2.8311 4.79951
upperback 2.40799 4.39392 -0.356054
thorax -3.17394 2.19679 -3.64369
lowerneck -20.3914 -4.38243 -3.42358
upperneck 18.4198 -4.33316 -2.38302
head 9.18216 -2.50773 -0.851714
rclavicle -6.5102e-014 -7.55382e-015
rhumerus -29.5545 29.1837 -96.0551
rradius 45.6468
rwrist -5.91448
rhand -10.1558 -33.9928
rfingers 7.12502
rthumb 15.8336 -63.3654
lclavicle -6.5102e-014 -7.55382e-015
lhumerus -42.7549 -1.31748 80.2183
lradius 28.2074
lwrist -6.45663
lhand -16.5367 -23.3137
lfingers 7.12502
lthumb 9.68235 6.44372
rfemur 11.347 -15.6846 19.6722
rtibia 4.01579
rfoot -21.005 -13.1842
rtoes 12.9555
lfemur -10.5038 8.23231 5.22967
ltibia 8.9863
lfoot -9.87769 16.1203
ltoes 1.53057
219
root -28.8032 16.8417 1.0782 192.782 65.2272 193.628
lowerback 10.8156 2.76185 5.17099
upperback 2.41015 4.34578 -0.265021
thorax -3.12818 2.17254 -3.74698
lowerneck -20.349 -4.46841 -3.65273
upperneck 18.379 -4.42178 -2.21844
head 9.17095 -2.54644 -0.769168
rclavicle 4.53229e-014 -2.50469e-014
rhumerus -29.3709 29.6424 -96.0768
rradius 46.1002
rwrist -5.86181
rhand -10.2574 -33.7822
rfingers 7.12502
rthumb 15.7357 -63.1625
lclavicle 4.53229e-014 -2.50469e-014
lhumerus -43.1559 -0.733842 79.7782
lradius 27.9542
lwrist -6.96313
lhand -16.2011 -23.2172
lfingers 7.12502
lthumb 10.0062 6.52496
rfemur 11.4769 -15.9914 19.9759
rtibia 3.96751
rfoot -21.0447 -13.1626
rtoes 13.007
lfemur -10.347 7.67064 6.06486
ltibia 7.82354
lfoot -11.1447 16.8559
ltoes 5.14478
220
root -28.7796 16.8284 1.03532 193.075 64.9464 193.926
lowerback 10.7802 2.78212 5.2654
upperback 2.49292 4.3821 -0.284572
thorax -3.00982 2.19739 -3.81835
lowerneck -20.5999 -4.582 -3.72281
upperneck 18.4319 -4.55478 -2.17265
head 9.2374 -2.61001 -0.768046
rclavicle 1.45113e-014 -7.55382e-015
rhumerus -29.0448 29.9937 -96.0183
rradius 46.7107
rwrist -5.79452
rhand -10.2716 -33.7929
rfingers 7.12502
rthumb 15.7221 -63.1743
lclavicle 1.45113e-014 -7.55382e-015
lhumerus -43.2601 -0.0134047 79.2
lradius 27.5281
lwrist -7.50471
lhand -15.599 -23.1456
lfingers 7.12502
lthumb 10.587 6.56772
rfemur 11.6253 -16.102 19.9754
rtibia 3.88514
rfoot -21.159 -13.0854
rtoes 14.227
lfemur -10.077 7.28408 6.59289
ltibia 6.63296
lfoot -11.5464 17.6513
ltoes 7.80676
221
root -28.7529 16.8164 0.989301 192.859 64.7053 193.714
lowerback 10.739 2.84093 4.95619
upperback 2.49518 4.42705 -0.194501
thorax -3.01153 2.22139 -3.55463
lowerneck -20.1815 -4.6839 -4.06576
upperneck 18.0756 -4.64523 -2.05049
head 9.0534 -2.65886 -0.66724
rclavicle 1.1937e-013 7.95139e-016
rhumerus -29.0992 30.4628 -95.8962
rradius 47.4293
rwrist -5.78973
rhand -10.276 -33.9651
rfingers 7.12502
rthumb 15.7179 -63.3468
lclavicle 1.1937e-013 7.95139e-016
lhumerus -43.593 0.964712 78.7191
lradius 27.0116
lwrist -8.40178
lhand -15.2979 -23.2109
lfingers 7.12502
lthumb 10.8774 6.48736
rfemur 11.8333 -16.3581 19.6283
rtibia 4.03822
rfoot -21.4114 -12.7516
rtoes 15.5655
lfemur -9.81998 6.70098 6.76637
ltibia 5.55072
lfoot -11.5392 18.6331
ltoes 7.74278
222
root -28.7265 16.8031 0.939511 193.2 64.2873 193.982
lowerback 10.7566 2.8533 5.26982
upperback 2.29664 4.47191 -0.318213
thorax -3.18962 2.22834 -3.87292
lowerneck -19.6654 -4.80243 -4.07319
upperneck 17.9317 -4.86396 -1.92845
head 8.91742 -2.74596 -0.638519
rclavicle -6.32135e-014 -1.19271e-015
rhumerus -29.3645 30.5652 -96.2036
rradius 48.0877
rwrist -5.92787
rhand -10.3131 -34.0332
rfingers 7.12502
rthumb 15.6822 -63.4177
lclavicle -6.32135e-014 -1.19271e-015
lhumerus -44.1866 1.18744 78.1016
lradius 26.7082
lwrist -9.12635
lhand -15.2101 -23.1424
lfingers 7.12502
lthumb 10.9621 6.5514
rfemur 11.8851 -16.6443 19.6562
rtibia 4.21985
rfoot -21.6033 -12.6158
rtoes 15.6991
lfemur -9.91908 6.02169 7.14725
ltibia 4.75007
lfoot -11.4023 19.6958
ltoes 5.44095
223
root -28.7011 16.7944 0.896018 194.006 64.025 194.849
lowerback 10.7645 2.88468 5.64114
upperback 2.34885 4.55654 -0.34198
thorax -3.0993 2.27358 -4.11272
lowerneck -19.8154 -4.88439 -3.92104
upperneck 17.82 -4.99937 -2.018
head 8.89909 -2.80977 -0.71345
rclavicle 7.59357e-014 2.38542e-015
rhumerus -29.0865 30.8304 -96.2308
rradius 48.6749
rwrist -6.18084
rhand -10.512 -33.8539
rfingers 7.12502
rthumb 15.4906 -63.2533
lclavicle 7.59357e-014 2.38542e-015
lhumerus -44.3201 1.75845 77.4129
lradius 26.3616
lwrist -9.92139
lhand -14.9139 -23.2355
lfingers 7.12502
lthumb 11.2478 6.44293
rfemur 12.0054 -16.2689 20.2195
rtibia 4.1238
rfoot -21.7634 -13.0954
rtoes 15.4278
lfemur -9.82244 5.40123 7.91521
ltibia 4.01901
lfoot -12.0909 20.5113
ltoes 6.78544
224
root -28.6741 16.7833 0.850435 194.724 63.6902 195.658
lowerback 10.8337 2.96882 5.78239
upperback 2.33157 4.69753 -0.169108
thorax -3.1437 2.34133 -4.03318
lowerneck -19.81 -5.04381 -4.11165
upperneck 17.8146 -5.15886 -2.01955
head 8.90364 -2.8972 -0.705067
rclavicle -1.8487e-014 1.59028e-014
rhumerus -28.9101 31.0014 -96.0044
rradius 49.1893
rwrist -6.39264
rhand -10.667 -33.7983
rfingers 7.12502
rthumb 15.3413 -63.2092
lclavicle -1.8487e-014 1.59028e-014
lhumerus -44.5185 2.5777 76.9
lradius 25.8335
lwrist -10.924
lhand -14.6113 -23.4569
lfingers 7.12502
lthumb 11.5396 6.20544
rfemur 12.1895 -15.8989 20.7447
rtibia 3.95869
rfoot -21.9589 -13.5595
rtoes 16.0233
lfemur -9.74927 4.73577 8.66388
ltibia 3.41485
lfoot -13.3236 21.1265
ltoes 9.29513
225
root -28.6438 16.7711 0.799587 195.4 63.3315 196.551
lowerback 10.9686 3.01037 6.05764
upperback 2.3314 4.80301 -0.00981082
thorax -3.19807 2.39129 -4.04244
lowerneck -19.687 -5.1902 -4.47039
upperneck 17.8276 -5.32374 -1.72971
head 8.90771 -2.96674 -0.569124
rclavicle 8.77634e-014 -1.27222e-014
rhumerus -28.7043 31.2975 -95.8478
rradius 49.7509
rwrist -6.71786
rhand -10.7356 -33.923
rfingers 7.12502
rthumb 15.2752 -63.3389
lclavicle 8.77634e-014 -1.27222e-014
lhumerus -44.8623 3.54616 76.2475
lradius 25.49
lwrist -12.1023
lhand -14.4248 -23.4264
lfingers 7.12502
lthumb 11.7195 6.22579
rfemur 12.437 -15.8746 21.1191
rtibia 4.04631
rfoot -22.1459 -13.6595
rtoes 16.1322
lfemur -9.59846 4.53048 9.43482
ltibia 2.95765
lfoot -13.4318 21.4606
ltoes 7.04424
226
root -28.614 16.7613 0.744329 195.851 63.0336 197.108
lowerback 10.9813 3.04833 6.27696
upperback 2.33004 4.88278 0.0337976
thorax -3.18301 2.43055 -4.12906
lowerneck -19.4455 -5.31751 -4.72531
upperneck 17.6752 -5.49593 -1.48306
head 8.83035 -3.03696 -0.459193
rclavicle -4.58199e-014 -2.3059e-014
rhumerus -28.5295 31.4842 -95.7618
rradius 50.269
rwrist -6.89768
rhand -10.8439 -33.9692
rfingers 7.12502
rthumb 15.1709 -63.3931
lclavicle -4.58199e-014 -2.3059e-014
lhumerus -45.3009 4.59361 75.4074
lradius 25.3904
lwrist -13.3102
lhand -14.0586 -23.3162
lfingers 7.12502
lthumb 12.0726 6.31559
rfemur 12.5557 -15.8031 21.3415
rtibia 4.26701
rfoot -22.4608 -13.7306
rtoes 16.3976
lfemur -9.50049 4.30769 9.99469
ltibia 2.50331
lfoot -13.3365 21.7325
ltoes 5.01178
227
root -28.5857 16.7515 0.685017 196.077 62.7565 197.229
lowerback 10.819 3.11973 6.3382
upperback 2.29514 4.96937 -0.0171927
thorax -3.11022 2.47399 -4.21522
lowerneck -19.2643 -5.47687 -4.86717
upperneck 17.5313 -5.72697 -1.30726
head 8.76244 -3.13558 -0.400934
rclavicle 1.6201e-014 0
rhumerus -28.3296 31.4358 -95.6814
rradius 50.7261
rwrist -6.90745
rhand -10.7121 -34.2259
rfingers 7.12502
rthumb 15.2978 -63.6402
lclavicle 1.6201e-014 0
lhumerus -45.4565 5.21107 74.7375
lradius 24.9551
lwrist -14.0396
lhand -13.6379 -23.3362
lfingers 7.12502
lthumb 12.4782 6.27126
rfemur 12.7029 -16.3272 21.1044
rtibia 4.28907
rfoot -22.4399 -13.3985
rtoes 16.2181
lfemur -9.6265 3.94016 10.2275
ltibia 2.1784
lfoot -13.8924 22.0234
ltoes 6.80619
228
root -28.5586 16.7385 0.622678 196.21 62.4832 197.37
lowerback 10.8139 3.183 6.2813
upperback 2.29673 5.04962 0.0367326
thorax -3.10659 2.51477 -4.13599
lowerneck -19.2435 -5.6237 -4.94243
upperneck 17.4396 -5.90804 -1.31249
head 8.7327 -3.22596 -0.412972
rclavicle -2.48481e-014 2.22639e-014
rhumerus -28.063 31.5216 -95.4173
rradius 51.1682
rwrist -6.98679
rhand -10.5855 -34.291
rfingers 7.12502
rthumb 15.4197 -63.6959
lclavicle -2.48481e-014 2.22639e-014
lhumerus -45.4245 5.50583 74.4776
lradius 24.2769
lwrist -14.2915
lhand -13.4335 -23.2652
lfingers 7.12502
lthumb 12.6753 6.33019
rfemur 12.9352 -16.1472 21.1379
rtibia 4.17988
rfoot -22.5889 -13.8204
rtoes 15.875
lfemur -9.70787 3.69201 10.4111
ltibia 2.03238
lfoot -14.1429 22.2288
ltoes 8.35404
229
root -28.5323 16.7278 0.561795 196.209 62.3177 197.386
lowerback 10.8636 3.26333 6.12291
upperback 2.31262 5.14413 0.0711862
thorax -3.12406 2.56306 -4.02605
lowerneck -19.2789 -5.75863 -5.05695
upperneck 17.4095 -6.05838 -1.30789
head 8.73539 -3.30355 -0.414168
rclavicle -5.48646e-014 1.35174e-014
rhumerus -27.8153 31.7131 -95.1662
rradius 51.539
rwrist -6.91384
rhand -10.7048 -34.0969
rfingers 7.12502
rthumb 15.3048 -63.5106
lclavicle -5.48646e-014 1.35174e-014
lhumerus -45.4046 5.66298 74.3446
lradius 23.6169
lwrist -14.3015
lhand -13.3943 -23.2026
lfingers 7.12502
lthumb 12.713 6.39043
rfemur 13.1983 -16.2621 20.9127
rtibia 4.13975
rfoot -22.5855 -13.91
rtoes 15.3265
lfemur -9.7491 3.74805 10.4833
ltibia 1.98553
lfoot -13.5368 22.3396
ltoes 7.06558
230
root -28.5033 16.7199 0.498086 196.321 62.0077 197.405
lowerback 10.7452 3.2864 6.15342
upperback 2.3215 5.16703 0.0184128
thorax -3.03916 2.57753 -4.09057
lowerneck -19.3422 -5.91344 -5.19087
upperneck 17.4263 -6.26279 -1.15399
head 8.76559 -3.39247 -0.371164
rclavicle 9.62118e-014 -7.15625e-015
rhumerus -27.5029 31.8705 -95.1077
rradius 51.7657
rwrist -6.78128
rhand -10.8963 -33.909
rfingers 7.12502
rthumb 15.1204 -63.3367
lclavicle 9.62118e-014 -7.15625e-015
lhumerus -45.3452 5.7947 74.0834
lradius 22.9183
lwrist -14.3276
lhand -13.4701 -23.4062
lfingers 7.12502
lthumb 12.64 6.19137
rfemur 13.3583 -16.7257 20.653
rtibia 4.15154
rfoot -22.5076 -13.7801
rtoes 14.3237
lfemur -10.0305 4.0076 10.5256
ltibia 2.14362
lfoot -12.7107 22.359
ltoes 4.03993
